<svg xmlns="http://www.w3.org/2000/svg" xmlns:xlink="http://www.w3.org/1999/xlink" width="700" zoomAndPan="magnify" viewBox="0 0 525 525.000007" height="700" preserveAspectRatio="xMidYMid meet" version="1.0"><defs><clipPath id="558032af99"><path d="M 24.121094 4.988281 L 500.960938 4.988281 L 500.960938 519.257812 L 24.121094 519.257812 Z M 24.121094 4.988281 " clip-rule="nonzero"/></clipPath></defs><g clip-path="url(#558032af99)"><path fill="#f97316" d="M 368.519531 519.027344 L 500.707031 519.027344 L 375.121094 335.445312 C 397.027344 327.363281 416.25 316.226562 432.777344 301.785156 C 449.179688 287.460938 462.03125 269.839844 471.207031 248.90625 C 480.507812 227.984375 485.15625 203.746094 485.277344 176.085938 L 485.277344 174.621094 C 485.277344 150.261719 481.484375 128.230469 474.011719 108.40625 C 466.558594 88.582031 455.535156 71.566406 441.222656 57.121094 C 424.332031 40.109375 403.292969 27.207031 378.183594 18.324219 C 353.125 9.460938 324.082031 4.988281 291.414062 4.988281 L 24.296875 4.988281 L 92.640625 107.058594 L 281.871094 107.058594 C 300.347656 107.058594 316.140625 109.878906 329.355469 115.378906 C 342.574219 120.890625 352.847656 128.964844 359.953125 139.863281 C 367.058594 150.753906 370.59375 164.339844 370.714844 180.496094 L 370.714844 181.960938 C 370.714844 196.527344 367.300781 209.257812 360.441406 220.027344 C 353.703125 230.917969 343.914062 239.367188 331.0625 245.484375 C 318.089844 251.484375 302.417969 254.542969 284.066406 254.664062 L 191.484375 254.664062 Z M 368.519531 519.027344 " fill-opacity="1" fill-rule="nonzero"/></g></svg>